<svg xmlns="http://www.w3.org/2000/svg" viewBox="0 0 189.88 243.3"><defs><style>.cls-1{stroke:#000;stroke-miterlimit:10;}</style></defs><title>Fichier 1puzzlePiece</title><g id="Calque_2" data-name="Calque 2"><g id="Calque_1-2" data-name="Calque 1"><path class="cls-1" d="M164.59,119.89a28.37,28.37,0,0,1,21,9.31,8.2,8.2,0,0,0,3.75,1.34V53.92h-44.3v-.17H112.16A8.33,8.33,0,0,1,113.51,50a28.48,28.48,0,1,0-43.1-5.65c-.69.89,5.22,4.66,5.55,9.39H37.12a.91.91,0,0,0,0,.17H.5V242.8H189.38V166.75c-4.74.33-8.51,6.23-9.4,5.55a28.47,28.47,0,1,1-15.39-52.41Z"/></g></g></svg>