<?xml version="1.0" encoding="utf-8"?>
<!-- Generator: Adobe Illustrator 24.0.2, SVG Export Plug-In . SVG Version: 6.00 Build 0)  -->
<svg version="1.1" id="Calque_1" xmlns="http://www.w3.org/2000/svg" xmlns:xlink="http://www.w3.org/1999/xlink" x="0px" y="0px"
	 viewBox="0 0 189.9 243.3" style="enable-background:new 0 0 189.9 243.3;" xml:space="preserve">
<style type="text/css">
	.st0{stroke:#000000;stroke-miterlimit:10;}
</style>
<title>Fichier 1puzzlePiece</title>
<path class="st0" d="M180,172.3c-13.2,8.5-30.8,4.7-39.3-8.5c-8.5-13.2-4.7-30.8,8.5-39.3c4.6-3,10-4.5,15.4-4.5
	c8,0,15.6,3.4,21,9.3c1.1,0.7,2.4,1.2,3.8,1.3V53.9H145v-0.2h-32.9c0.1-1.3,0.6-2.6,1.3-3.8c11.6-10.6,12.5-28.6,1.9-40.2
	C104.8-1.9,86.8-2.7,75.2,7.9c-10.3,9.4-12.3,24.8-4.8,36.5c-0.7,0.9,5.2,4.7,5.5,9.4H37.1c0,0.1,0,0.1,0,0.2H0.5v177.3
	c2,5.2,5.9,9.3,10.8,11.6h178.1v-76C184.6,167.1,180.9,173,180,172.3z"/>
</svg>
